# xmcd
#
# Track frame offsets: 
#        150
#        12051
#        24373
#        34430
#        45887
#        58768
#        70147
#        86078
#        98761
#        111461
#        124405
#        136355
#        148954
#        160369
#        170026
#        181401
#        193020
#        205770
#        217095
#        227422
#
# Disc length: 3220 seconds
#
# Revision: 0
# Processed by: cddbd v1.5.2PL0 Copyright (c) Steve Scherf et al.
# Submitted via: ExactAudioCopyFreeDBPlugin 1.0
#
DISCID=270c9214
DTITLE=Various Artist - 101 Northern Soul Disc 3
DYEAR=1900
DGENRE=Northern Soul
TTITLE0=Darrell Banks - I'm The One Who Loves You
TTITLE1=Debbie Dean - Why Am I Lovin' You
TTITLE2=Dusty Springfield - What's It Gonna Be
TTITLE3=Edwin Starr - Headline News
TTITLE4=Frances Nero - Keep On Lovin' Me
TTITLE5=Georgie Fame and The Blue Flames - Sweet Thing
TTITLE6=Jr. Walker and The All Stars - Ain't Going Nowhere
TTITLE7=Kim Weston - I'm Gonna Make It Up To You
TTITLE8=Marvin Gaye - Lucky Lucky Me
TTITLE9=R. Dean Taylor - Let's Go Somewhere
TTITLE10=Reuben Howell - You Can't Stop A Man In Love
TTITLE11=Sugar Pie DeSanto - Soulful Dress
TTITLE12=The Ambers - Potion Of Love
TTITLE13=The Charades - Key To My Happiness
TTITLE14=The Isley Brothers - Why When The Love Is Gone
TTITLE15=The Marvelettes - Your Love Can Save Me
TTITLE16=The Miracles - Going To A Go-Go
TTITLE17=Diana Ross and The Supremes - You've Been So Wonderful To Me
TTITLE18=The Temptations - Girl (Why You Wanna Make ME Blue)
TTITLE19=The Originals - Suspicion
EXTD=
EXTT0=
EXTT1=
EXTT2=
EXTT3=
EXTT4=
EXTT5=
EXTT6=
EXTT7=
EXTT8=
EXTT9=
EXTT10=
EXTT11=
EXTT12=
EXTT13=
EXTT14=
EXTT15=
EXTT16=
EXTT17=
EXTT18=
EXTT19=
PLAYORDER=
